<?xml version="1.0" encoding="UTF-8"?>
<!DOCTYPE svg PUBLIC "-//W3C//DTD SVG 1.1//EN"
    "http://www.w3.org/Graphics/SVG/1.1/DTD/svg11.dtd">
<svg xmlns="http://www.w3.org/2000/svg" height="535.6820" stroke-opacity="1" viewBox="0 0 600 536" font-size="1" width="600.0000" xmlns:xlink="http://www.w3.org/1999/xlink" stroke="rgb(0,0,0)" version="1.1">
  <defs>
  </defs>
  <g stroke-linejoin="miter" stroke-opacity="1.0" fill-opacity="0.0" stroke="rgb(255,0,0)" stroke-width="2.2677184083565947" fill="rgb(0,0,0)" stroke-linecap="butt" stroke-miterlimit="10.0">
    <path d="M 474.0536,261.1657 c 50.5370,-16.4205 78.1940,-70.7003 61.7735 -121.2373c -3.1199,-9.6022 -7.7318,-18.6534 -13.6663 -26.8215"/>
  </g>
  <g stroke-linejoin="miter" stroke-opacity="1.0" fill-opacity="0.0" stroke="rgb(0,0,255)" stroke-width="2.2677184083565947" fill="rgb(0,0,0)" stroke-linecap="butt" stroke-miterlimit="10.0">
    <path d="M 444.3217,169.6603 c 31.2336,42.9894 91.4032,52.5193 134.3926 21.2857c 8.1681,-5.9345 15.3512,-13.1176 21.2857 -21.2857"/>
  </g>
  <g stroke-linejoin="miter" stroke-opacity="1.0" fill-opacity="0.0" stroke="rgb(0,128,0)" stroke-width="2.2677184083565947" fill="rgb(0,0,0)" stroke-linecap="butt" stroke-miterlimit="10.0">
    <path d="M 522.1609,113.1069 c -31.2336,42.9894 -21.7037,103.1590 21.2857 134.3926c 8.1681,5.9345 17.2194,10.5463 26.8215 13.6663"/>
  </g>
  <g stroke-linejoin="miter" stroke-opacity="1.0" fill-opacity="0.0" stroke="rgb(128,0,128)" stroke-width="2.2677184083565947" fill="rgb(0,0,0)" stroke-linecap="butt" stroke-miterlimit="10.0">
    <path d="M 600.0000,169.6603 c -50.5370,-16.4205 -104.8168,11.2365 -121.2373 61.7735c -3.1199,9.6022 -4.7091,19.6356 -4.7091 29.7319"/>
  </g>
  <g stroke-linejoin="miter" stroke-opacity="1.0" fill-opacity="0.0" stroke="rgb(0,0,0)" stroke-width="2.2677184083565947" fill="rgb(0,0,0)" stroke-linecap="butt" stroke-miterlimit="10.0">
    <path d="M 570.2681,261.1657 c 0.0000,-53.1378 -43.0767,-96.2145 -96.2145 -96.2145c -10.0963,-0.0000 -20.1297,1.5891 -29.7319 4.7091"/>
  </g>
  <g stroke-linejoin="miter" stroke-opacity="1.0" fill-opacity="0.0" stroke="rgb(255,0,0)" stroke-width="2.2677184083565947" fill="rgb(0,0,0)" stroke-linecap="butt" stroke-miterlimit="10.0">
    <path d="M 125.9464,148.0589 c 0.0000,-53.1378 -43.0767,-96.2145 -96.2145 -96.2145c -10.0963,-0.0000 -20.1297,1.5891 -29.7319 4.7091"/>
  </g>
  <g stroke-linejoin="miter" stroke-opacity="1.0" fill-opacity="0.0" stroke="rgb(0,0,255)" stroke-width="2.2677184083565947" fill="rgb(0,0,0)" stroke-linecap="butt" stroke-miterlimit="10.0">
    <path d="M 29.7319,148.0589 c 50.5370,-16.4205 78.1940,-70.7003 61.7735 -121.2373c -3.1199,-9.6022 -7.7318,-18.6534 -13.6663 -26.8215"/>
  </g>
  <g stroke-linejoin="miter" stroke-opacity="1.0" fill-opacity="0.0" stroke="rgb(0,128,0)" stroke-width="2.2677184083565947" fill="rgb(0,0,0)" stroke-linecap="butt" stroke-miterlimit="10.0">
    <path d="M -0.0000,56.5534 c 31.2336,42.9894 91.4032,52.5193 134.3926 21.2857c 8.1681,-5.9345 15.3512,-13.1176 21.2857 -21.2857"/>
  </g>
  <g stroke-linejoin="miter" stroke-opacity="1.0" fill-opacity="0.0" stroke="rgb(128,0,128)" stroke-width="2.2677184083565947" fill="rgb(0,0,0)" stroke-linecap="butt" stroke-miterlimit="10.0">
    <path d="M 77.8391,-0.0000 c -31.2336,42.9894 -21.7037,103.1590 21.2857 134.3926c 8.1681,5.9345 17.2194,10.5463 26.8215 13.6663"/>
  </g>
  <g stroke-linejoin="miter" stroke-opacity="1.0" fill-opacity="0.0" stroke="rgb(0,0,0)" stroke-width="2.2677184083565947" fill="rgb(0,0,0)" stroke-linecap="butt" stroke-miterlimit="10.0">
    <path d="M 155.6783,56.5534 c -50.5370,-16.4205 -104.8168,11.2365 -121.2373 61.7735c -3.1199,9.6022 -4.7091,19.6356 -4.7091 29.7319"/>
  </g>
  <g stroke-linejoin="miter" stroke-opacity="1.0" fill-opacity="0.0" stroke="rgb(255,0,0)" stroke-width="2.2677184083565947" fill="rgb(0,0,0)" stroke-linecap="butt" stroke-miterlimit="10.0">
    <path d="M 341.0885,444.1766 c -50.5370,-16.4205 -104.8168,11.2365 -121.2373 61.7735c -3.1199,9.6022 -4.7091,19.6356 -4.7091 29.7319"/>
  </g>
  <g stroke-linejoin="miter" stroke-opacity="1.0" fill-opacity="0.0" stroke="rgb(0,0,255)" stroke-width="2.2677184083565947" fill="rgb(0,0,0)" stroke-linecap="butt" stroke-miterlimit="10.0">
    <path d="M 311.3566,535.6820 c 0.0000,-53.1378 -43.0767,-96.2145 -96.2145 -96.2145c -10.0963,-0.0000 -20.1297,1.5891 -29.7319 4.7091"/>
  </g>
  <g stroke-linejoin="miter" stroke-opacity="1.0" fill-opacity="0.0" stroke="rgb(0,128,0)" stroke-width="2.2677184083565947" fill="rgb(0,0,0)" stroke-linecap="butt" stroke-miterlimit="10.0">
    <path d="M 215.1421,535.6820 c 50.5370,-16.4205 78.1940,-70.7003 61.7735 -121.2373c -3.1199,-9.6022 -7.7318,-18.6534 -13.6663 -26.8215"/>
  </g>
  <g stroke-linejoin="miter" stroke-opacity="1.0" fill-opacity="0.0" stroke="rgb(128,0,128)" stroke-width="2.2677184083565947" fill="rgb(0,0,0)" stroke-linecap="butt" stroke-miterlimit="10.0">
    <path d="M 185.4102,444.1766 c 31.2336,42.9894 91.4032,52.5193 134.3926 21.2857c 8.1681,-5.9345 15.3512,-13.1176 21.2857 -21.2857"/>
  </g>
  <g stroke-linejoin="miter" stroke-opacity="1.0" fill-opacity="0.0" stroke="rgb(0,0,0)" stroke-width="2.2677184083565947" fill="rgb(0,0,0)" stroke-linecap="butt" stroke-miterlimit="10.0">
    <path d="M 263.2493,387.6231 c -31.2336,42.9894 -21.7037,103.1590 21.2857 134.3926c 8.1681,5.9345 17.2194,10.5463 26.8215 13.6663"/>
  </g>
  <g stroke-linejoin="miter" stroke-opacity="1.0" fill-opacity="0.0" stroke="rgb(255,0,0)" stroke-width="2.2677184083565947" fill="rgb(0,0,0)" stroke-linecap="butt" stroke-miterlimit="10.0">
    <path d="M 341.0885,78.1549 c -31.2336,42.9894 -21.7037,103.1590 21.2857 134.3926c 8.1681,5.9345 17.2194,10.5463 26.8215 13.6663"/>
  </g>
  <g stroke-linejoin="miter" stroke-opacity="1.0" fill-opacity="0.0" stroke="rgb(0,0,255)" stroke-width="2.2677184083565947" fill="rgb(0,0,0)" stroke-linecap="butt" stroke-miterlimit="10.0">
    <path d="M 418.9276,134.7084 c -50.5370,-16.4205 -104.8168,11.2365 -121.2373 61.7735c -3.1199,9.6022 -4.7091,19.6356 -4.7091 29.7319"/>
  </g>
  <g stroke-linejoin="miter" stroke-opacity="1.0" fill-opacity="0.0" stroke="rgb(0,128,0)" stroke-width="2.2677184083565947" fill="rgb(0,0,0)" stroke-linecap="butt" stroke-miterlimit="10.0">
    <path d="M 389.1957,226.2138 c 0.0000,-53.1378 -43.0767,-96.2145 -96.2145 -96.2145c -10.0963,-0.0000 -20.1297,1.5891 -29.7319 4.7091"/>
  </g>
  <g stroke-linejoin="miter" stroke-opacity="1.0" fill-opacity="0.0" stroke="rgb(128,0,128)" stroke-width="2.2677184083565947" fill="rgb(0,0,0)" stroke-linecap="butt" stroke-miterlimit="10.0">
    <path d="M 292.9812,226.2138 c 50.5370,-16.4205 78.1940,-70.7003 61.7735 -121.2373c -3.1199,-9.6022 -7.7318,-18.6534 -13.6663 -26.8215"/>
  </g>
  <g stroke-linejoin="miter" stroke-opacity="1.0" fill-opacity="0.0" stroke="rgb(0,0,0)" stroke-width="2.2677184083565947" fill="rgb(0,0,0)" stroke-linecap="butt" stroke-miterlimit="10.0">
    <path d="M 263.2493,134.7084 c 31.2336,42.9894 91.4032,52.5193 134.3926 21.2857c 8.1681,-5.9345 15.3512,-13.1176 21.2857 -21.2857"/>
  </g>
  <g stroke-linejoin="miter" stroke-opacity="1.0" fill-opacity="0.0" stroke="rgb(255,0,0)" stroke-width="2.2677184083565947" fill="rgb(0,0,0)" stroke-linecap="butt" stroke-miterlimit="10.0">
    <path d="M 125.9464,374.2726 c 31.2336,42.9894 91.4032,52.5193 134.3926 21.2857c 8.1681,-5.9345 15.3512,-13.1176 21.2857 -21.2857"/>
  </g>
  <g stroke-linejoin="miter" stroke-opacity="1.0" fill-opacity="0.0" stroke="rgb(0,0,255)" stroke-width="2.2677184083565947" fill="rgb(0,0,0)" stroke-linecap="butt" stroke-miterlimit="10.0">
    <path d="M 203.7855,317.7192 c -31.2336,42.9894 -21.7037,103.1590 21.2857 134.3926c 8.1681,5.9345 17.2194,10.5463 26.8215 13.6663"/>
  </g>
  <g stroke-linejoin="miter" stroke-opacity="1.0" fill-opacity="0.0" stroke="rgb(0,128,0)" stroke-width="2.2677184083565947" fill="rgb(0,0,0)" stroke-linecap="butt" stroke-miterlimit="10.0">
    <path d="M 281.6247,374.2726 c -50.5370,-16.4205 -104.8168,11.2365 -121.2373 61.7735c -3.1199,9.6022 -4.7091,19.6356 -4.7091 29.7319"/>
  </g>
  <g stroke-linejoin="miter" stroke-opacity="1.0" fill-opacity="0.0" stroke="rgb(128,0,128)" stroke-width="2.2677184083565947" fill="rgb(0,0,0)" stroke-linecap="butt" stroke-miterlimit="10.0">
    <path d="M 251.8928,465.7780 c 0.0000,-53.1378 -43.0767,-96.2145 -96.2145 -96.2145c -10.0963,-0.0000 -20.1297,1.5891 -29.7319 4.7091"/>
  </g>
  <g stroke-linejoin="miter" stroke-opacity="1.0" fill-opacity="0.0" stroke="rgb(0,0,0)" stroke-width="2.2677184083565947" fill="rgb(0,0,0)" stroke-linecap="butt" stroke-miterlimit="10.0">
    <path d="M 155.6783,465.7780 c 50.5370,-16.4205 78.1940,-70.7003 61.7735 -121.2373c -3.1199,-9.6022 -7.7318,-18.6534 -13.6663 -26.8215"/>
  </g>
  <g stroke-linejoin="miter" stroke-opacity="1.0" fill-opacity="0.0" stroke="rgb(255,0,0)" stroke-width="2.2677184083565947" fill="rgb(0,0,0)" stroke-linecap="butt" stroke-miterlimit="10.0">
    <path d="M 281.6247,261.1657 c 50.5370,-16.4205 78.1940,-70.7003 61.7735 -121.2373c -3.1199,-9.6022 -7.7318,-18.6534 -13.6663 -26.8215"/>
  </g>
  <g stroke-linejoin="miter" stroke-opacity="1.0" fill-opacity="0.0" stroke="rgb(0,0,255)" stroke-width="2.2677184083565947" fill="rgb(0,0,0)" stroke-linecap="butt" stroke-miterlimit="10.0">
    <path d="M 251.8928,169.6603 c 31.2336,42.9894 91.4032,52.5193 134.3926 21.2857c 8.1681,-5.9345 15.3512,-13.1176 21.2857 -21.2857"/>
  </g>
  <g stroke-linejoin="miter" stroke-opacity="1.0" fill-opacity="0.0" stroke="rgb(0,128,0)" stroke-width="2.2677184083565947" fill="rgb(0,0,0)" stroke-linecap="butt" stroke-miterlimit="10.0">
    <path d="M 329.7319,113.1069 c -31.2336,42.9894 -21.7037,103.1590 21.2857 134.3926c 8.1681,5.9345 17.2194,10.5463 26.8215 13.6663"/>
  </g>
  <g stroke-linejoin="miter" stroke-opacity="1.0" fill-opacity="0.0" stroke="rgb(128,0,128)" stroke-width="2.2677184083565947" fill="rgb(0,0,0)" stroke-linecap="butt" stroke-miterlimit="10.0">
    <path d="M 407.5711,169.6603 c -50.5370,-16.4205 -104.8168,11.2365 -121.2373 61.7735c -3.1199,9.6022 -4.7091,19.6356 -4.7091 29.7319"/>
  </g>
  <g stroke-linejoin="miter" stroke-opacity="1.0" fill-opacity="0.0" stroke="rgb(0,0,0)" stroke-width="2.2677184083565947" fill="rgb(0,0,0)" stroke-linecap="butt" stroke-miterlimit="10.0">
    <path d="M 377.8391,261.1657 c 0.0000,-53.1378 -43.0767,-96.2145 -96.2145 -96.2145c -10.0963,-0.0000 -20.1297,1.5891 -29.7319 4.7091"/>
  </g>
</svg>