<?xml version="1.0" encoding="UTF-8"?>
<!DOCTYPE svg PUBLIC "-//W3C//DTD SVG 1.1//EN"
    "http://www.w3.org/Graphics/SVG/1.1/DTD/svg11.dtd">
<svg xmlns="http://www.w3.org/2000/svg" height="570.6339" stroke-opacity="1" viewBox="0 0 600 571" font-size="1" width="600.0000" xmlns:xlink="http://www.w3.org/1999/xlink" stroke="rgb(0,0,0)" version="1.1">
  <defs>
  </defs>
  <g stroke-linejoin="miter" stroke-opacity="1.0" fill-opacity="0.0" stroke="rgb(255,0,0)" stroke-width="2.3405310367222403" fill="rgb(0,0,0)" stroke-linecap="butt" stroke-miterlimit="10.0">
    <path d="M 114.5898,570.6339 c 194.7749,-63.2862 301.3675,-272.4861 238.0813 -467.2610c -12.0246,-37.0078 -29.7991,-71.8923 -52.6712 -103.3730"/>
  </g>
  <g stroke-linejoin="miter" stroke-opacity="1.0" fill-opacity="0.0" stroke="rgb(0,0,255)" stroke-width="2.3405310367222403" fill="rgb(0,0,0)" stroke-linecap="butt" stroke-miterlimit="10.0">
    <path d="M -0.0000,217.9628 c 120.3775,165.6854 352.2773,202.4147 517.9628 82.0372c 31.4807,-22.8721 59.1652,-50.5566 82.0372 -82.0372"/>
  </g>
  <g stroke-linejoin="miter" stroke-opacity="1.0" fill-opacity="0.0" stroke="rgb(0,128,0)" stroke-width="2.3405310367222403" fill="rgb(0,0,0)" stroke-linecap="butt" stroke-miterlimit="10.0">
    <path d="M 300.0000,0.0000 c -120.3775,165.6854 -83.6482,397.5853 82.0372 517.9628c 31.4807,22.8721 66.3652,40.6466 103.3730 52.6712"/>
  </g>
  <g stroke-linejoin="miter" stroke-opacity="1.0" fill-opacity="0.0" stroke="rgb(128,0,128)" stroke-width="2.3405310367222403" fill="rgb(0,0,0)" stroke-linecap="butt" stroke-miterlimit="10.0">
    <path d="M 600.0000,217.9628 c -194.7749,-63.2862 -403.9748,43.3064 -467.2610 238.0813c -12.0246,37.0078 -18.1492,75.6775 -18.1492 114.5898"/>
  </g>
  <g stroke-linejoin="miter" stroke-opacity="1.0" fill-opacity="0.0" stroke="rgb(0,0,0)" stroke-width="2.3405310367222403" fill="rgb(0,0,0)" stroke-linecap="butt" stroke-miterlimit="10.0">
    <path d="M 485.4102,570.6339 c 0.0000,-204.7984 -166.0219,-370.8204 -370.8204 -370.8204c -38.9123,-0.0000 -77.5820,6.1247 -114.5898 18.1492"/>
  </g>
</svg>