<?xml version="1.0" encoding="UTF-8"?>
<!DOCTYPE svg PUBLIC "-//W3C//DTD SVG 1.1//EN"
    "http://www.w3.org/Graphics/SVG/1.1/DTD/svg11.dtd">
<svg xmlns="http://www.w3.org/2000/svg" height="572.3432" stroke-opacity="1" viewBox="0 0 600 572" font-size="1" width="600.0000" xmlns:xlink="http://www.w3.org/1999/xlink" stroke="rgb(0,0,0)" version="1.1">
  <defs>
  </defs>
  <g stroke-linejoin="miter" stroke-opacity="1.0" fill-opacity="1.0" stroke="rgb(0,0,0)" stroke-width="0.0" fill="rgb(0,0,0)" stroke-linecap="butt" stroke-miterlimit="10.0">
    <path d="M 142.8436,554.8814 c 0.0000,-9.6439 -7.8179,-17.4618 -17.4618 -17.4618c -9.6439,-0.0000 -17.4618,7.8179 -17.4618 17.4618c -0.0000,9.6439 7.8179,17.4618 17.4618 17.4618c 9.6439,0.0000 17.4618,-7.8179 17.4618 -17.4618Z"/>
  </g>
  <g stroke-linejoin="miter" stroke-opacity="1.0" fill-opacity="1.0" stroke="rgb(0,0,0)" stroke-width="0.0" fill="rgb(0,0,0)" stroke-linecap="butt" stroke-miterlimit="10.0">
    <path d="M 34.9236,222.7378 c 0.0000,-9.6439 -7.8179,-17.4618 -17.4618 -17.4618c -9.6439,-0.0000 -17.4618,7.8179 -17.4618 17.4618c -0.0000,9.6439 7.8179,17.4618 17.4618 17.4618c 9.6439,0.0000 17.4618,-7.8179 17.4618 -17.4618Z"/>
  </g>
  <g stroke-linejoin="miter" stroke-opacity="1.0" fill-opacity="1.0" stroke="rgb(0,0,0)" stroke-width="0.0" fill="rgb(0,0,0)" stroke-linecap="butt" stroke-miterlimit="10.0">
    <path d="M 317.4618,17.4618 c 0.0000,-9.6439 -7.8179,-17.4618 -17.4618 -17.4618c -9.6439,-0.0000 -17.4618,7.8179 -17.4618 17.4618c -0.0000,9.6439 7.8179,17.4618 17.4618 17.4618c 9.6439,0.0000 17.4618,-7.8179 17.4618 -17.4618Z"/>
  </g>
  <g stroke-linejoin="miter" stroke-opacity="1.0" fill-opacity="1.0" stroke="rgb(0,0,0)" stroke-width="0.0" fill="rgb(0,0,0)" stroke-linecap="butt" stroke-miterlimit="10.0">
    <path d="M 600.0000,222.7378 c 0.0000,-9.6439 -7.8179,-17.4618 -17.4618 -17.4618c -9.6439,-0.0000 -17.4618,7.8179 -17.4618 17.4618c -0.0000,9.6439 7.8179,17.4618 17.4618 17.4618c 9.6439,0.0000 17.4618,-7.8179 17.4618 -17.4618Z"/>
  </g>
  <g stroke-linejoin="miter" stroke-opacity="1.0" fill-opacity="1.0" stroke="rgb(0,0,0)" stroke-width="0.0" fill="rgb(0,0,0)" stroke-linecap="butt" stroke-miterlimit="10.0">
    <path d="M 492.0800,554.8814 c 0.0000,-9.6439 -7.8179,-17.4618 -17.4618 -17.4618c -9.6439,-0.0000 -17.4618,7.8179 -17.4618 17.4618c -0.0000,9.6439 7.8179,17.4618 17.4618 17.4618c 9.6439,0.0000 17.4618,-7.8179 17.4618 -17.4618Z"/>
  </g>
</svg>