<?xml version="1.0" encoding="UTF-8"?>
<!DOCTYPE svg PUBLIC "-//W3C//DTD SVG 1.1//EN"
    "http://www.w3.org/Graphics/SVG/1.1/DTD/svg11.dtd">
<svg xmlns="http://www.w3.org/2000/svg" height="907.8316" stroke-opacity="1" viewBox="0 0 600 908" font-size="1" width="600.0000" xmlns:xlink="http://www.w3.org/1999/xlink" stroke="rgb(0,0,0)" version="1.1">
  <defs>
  </defs>
  <g stroke-linejoin="miter" stroke-opacity="1.0" fill-opacity="1.0" stroke="rgb(0,0,0)" stroke-width="2.952148993132957" fill="rgb(0,0,255)" stroke-linecap="butt" stroke-miterlimit="10.0">
    <path d="M 309.9529,833.4920 c 0.0000,-41.0566 -33.2830,-74.3396 -74.3396 -74.3396c -41.0566,-0.0000 -74.3396,33.2830 -74.3396 74.3396c -0.0000,41.0566 33.2830,74.3396 74.3396 74.3396c 41.0566,0.0000 74.3396,-33.2830 74.3396 -74.3396Z"/>
  </g>
  <g stroke-linejoin="miter" stroke-opacity="1.0" fill-opacity="1.0" stroke="rgb(0,0,0)" stroke-width="2.952148993132957" fill="rgb(0,0,255)" stroke-linecap="butt" stroke-miterlimit="10.0">
    <path d="M 439.2844,730.3536 c 0.0000,-41.0566 -33.2830,-74.3396 -74.3396 -74.3396c -41.0566,-0.0000 -74.3396,33.2830 -74.3396 74.3396c -0.0000,41.0566 33.2830,74.3396 74.3396 74.3396c 41.0566,0.0000 74.3396,-33.2830 74.3396 -74.3396Z"/>
  </g>
  <g stroke-linejoin="miter" stroke-opacity="1.0" fill-opacity="1.0" stroke="rgb(0,0,0)" stroke-width="2.952148993132957" fill="rgb(0,0,255)" stroke-linecap="butt" stroke-miterlimit="10.0">
    <path d="M 511.0580,581.3143 c 0.0000,-41.0566 -33.2830,-74.3396 -74.3396 -74.3396c -41.0566,-0.0000 -74.3396,33.2830 -74.3396 74.3396c -0.0000,41.0566 33.2830,74.3396 74.3396 74.3396c 41.0566,0.0000 74.3396,-33.2830 74.3396 -74.3396Z"/>
  </g>
  <g stroke-linejoin="miter" stroke-opacity="1.0" fill-opacity="1.0" stroke="rgb(0,0,0)" stroke-width="2.952148993132957" fill="rgb(0,0,255)" stroke-linecap="butt" stroke-miterlimit="10.0">
    <path d="M 511.0580,415.8931 c 0.0000,-41.0566 -33.2830,-74.3396 -74.3396 -74.3396c -41.0566,-0.0000 -74.3396,33.2830 -74.3396 74.3396c -0.0000,41.0566 33.2830,74.3396 74.3396 74.3396c 41.0566,0.0000 74.3396,-33.2830 74.3396 -74.3396Z"/>
  </g>
  <g stroke-linejoin="miter" stroke-opacity="1.0" fill-opacity="1.0" stroke="rgb(0,0,0)" stroke-width="2.952148993132957" fill="rgb(0,0,255)" stroke-linecap="butt" stroke-miterlimit="10.0">
    <path d="M 439.2844,266.8537 c 0.0000,-41.0566 -33.2830,-74.3396 -74.3396 -74.3396c -41.0566,-0.0000 -74.3396,33.2830 -74.3396 74.3396c -0.0000,41.0566 33.2830,74.3396 74.3396 74.3396c 41.0566,0.0000 74.3396,-33.2830 74.3396 -74.3396Z"/>
  </g>
  <g stroke-linejoin="miter" stroke-opacity="1.0" fill-opacity="1.0" stroke="rgb(0,0,0)" stroke-width="2.952148993132957" fill="rgb(0,0,255)" stroke-linecap="butt" stroke-miterlimit="10.0">
    <path d="M 309.9529,163.7153 c 0.0000,-41.0566 -33.2830,-74.3396 -74.3396 -74.3396c -41.0566,-0.0000 -74.3396,33.2830 -74.3396 74.3396c -0.0000,41.0566 33.2830,74.3396 74.3396 74.3396c 41.0566,0.0000 74.3396,-33.2830 74.3396 -74.3396Z"/>
  </g>
  <g stroke-linejoin="miter" stroke-opacity="1.0" fill-opacity="1.0" stroke="rgb(0,0,0)" stroke-width="2.952148993132957" fill="rgb(0,0,255)" stroke-linecap="butt" stroke-miterlimit="10.0">
    <path d="M 148.6792,126.9056 c 0.0000,-41.0566 -33.2830,-74.3396 -74.3396 -74.3396c -41.0566,-0.0000 -74.3396,33.2830 -74.3396 74.3396c -0.0000,41.0566 33.2830,74.3396 74.3396 74.3396c 41.0566,0.0000 74.3396,-33.2830 74.3396 -74.3396Z"/>
  </g>
  <g stroke-linejoin="miter" stroke-opacity="1.0" fill-opacity="0.0" stroke="rgb(0,0,0)" stroke-width="2.952148993132957" fill="rgb(0,0,0)" stroke-linecap="butt" stroke-miterlimit="10.0">
    <path d="M 74.3396,52.5660 l 52.5660,-52.5660 l 52.5660,52.5660 l 52.5660,-52.5660 l 52.5660,52.5660 l 52.5660,-52.5660 l 52.5660,52.5660 l 52.5660,-52.5660 l 52.5660,52.5660 l 52.5660,-52.5660 l 52.5660,52.5660 "/>
  </g>
</svg>