<?xml version="1.0" encoding="UTF-8"?>
<!DOCTYPE svg PUBLIC "-//W3C//DTD SVG 1.1//EN"
    "http://www.w3.org/Graphics/SVG/1.1/DTD/svg11.dtd">
<svg xmlns="http://www.w3.org/2000/svg" height="591.9965" stroke-opacity="1" viewBox="0 0 600 592" font-size="1" width="600.0000" xmlns:xlink="http://www.w3.org/1999/xlink" stroke="rgb(0,0,0)" version="1.1">
  <defs>
  </defs>
  <g stroke-linejoin="miter" stroke-opacity="1.0" fill-opacity="1.0" stroke="rgb(0,0,0)" stroke-width="2.3839392368560475" fill="rgb(0,128,0)" stroke-linecap="butt" stroke-miterlimit="10.0">
    <path d="M 428.0728,555.4043 c 0.0000,-20.2093 -16.3829,-36.5922 -36.5922 -36.5922c -20.2093,-0.0000 -36.5922,16.3829 -36.5922 36.5922c -0.0000,20.2093 16.3829,36.5922 36.5922 36.5922c 20.2093,0.0000 36.5922,-16.3829 36.5922 -36.5922Z"/>
  </g>
  <g stroke-linejoin="miter" stroke-opacity="1.0" fill-opacity="1.0" stroke="rgb(0,0,0)" stroke-width="2.3839392368560475" fill="rgb(0,128,0)" stroke-linecap="butt" stroke-miterlimit="10.0">
    <path d="M 245.1117,555.4043 c 0.0000,-20.2093 -16.3829,-36.5922 -36.5922 -36.5922c -20.2093,-0.0000 -36.5922,16.3829 -36.5922 36.5922c -0.0000,20.2093 16.3829,36.5922 36.5922 36.5922c 20.2093,0.0000 36.5922,-16.3829 36.5922 -36.5922Z"/>
  </g>
  <g stroke-linejoin="miter" stroke-opacity="1.0" fill-opacity="1.0" stroke="rgb(0,0,0)" stroke-width="2.3839392368560475" fill="rgb(0,128,0)" stroke-linecap="butt" stroke-miterlimit="10.0">
    <path d="M 104.9553,437.7991 c 0.0000,-20.2093 -16.3829,-36.5922 -36.5922 -36.5922c -20.2093,-0.0000 -36.5922,16.3829 -36.5922 36.5922c -0.0000,20.2093 16.3829,36.5922 36.5922 36.5922c 20.2093,0.0000 36.5922,-16.3829 36.5922 -36.5922Z"/>
  </g>
  <g stroke-linejoin="miter" stroke-opacity="1.0" fill-opacity="1.0" stroke="rgb(0,0,0)" stroke-width="2.3839392368560475" fill="rgb(0,128,0)" stroke-linecap="butt" stroke-miterlimit="10.0">
    <path d="M 73.1844,257.6176 c 0.0000,-20.2093 -16.3829,-36.5922 -36.5922 -36.5922c -20.2093,-0.0000 -36.5922,16.3829 -36.5922 36.5922c -0.0000,20.2093 16.3829,36.5922 36.5922 36.5922c 20.2093,0.0000 36.5922,-16.3829 36.5922 -36.5922Z"/>
  </g>
  <g stroke-linejoin="miter" stroke-opacity="1.0" fill-opacity="1.0" stroke="rgb(0,0,0)" stroke-width="2.3839392368560475" fill="rgb(0,128,0)" stroke-linecap="butt" stroke-miterlimit="10.0">
    <path d="M 164.6650,99.1686 c 0.0000,-20.2093 -16.3829,-36.5922 -36.5922 -36.5922c -20.2093,-0.0000 -36.5922,16.3829 -36.5922 36.5922c -0.0000,20.2093 16.3829,36.5922 36.5922 36.5922c 20.2093,0.0000 36.5922,-16.3829 36.5922 -36.5922Z"/>
  </g>
  <g stroke-linejoin="miter" stroke-opacity="1.0" fill-opacity="1.0" stroke="rgb(0,0,0)" stroke-width="2.3839392368560475" fill="rgb(0,128,0)" stroke-linecap="butt" stroke-miterlimit="10.0">
    <path d="M 336.5922,36.5922 c 0.0000,-20.2093 -16.3829,-36.5922 -36.5922 -36.5922c -20.2093,-0.0000 -36.5922,16.3829 -36.5922 36.5922c -0.0000,20.2093 16.3829,36.5922 36.5922 36.5922c 20.2093,0.0000 36.5922,-16.3829 36.5922 -36.5922Z"/>
  </g>
  <g stroke-linejoin="miter" stroke-opacity="1.0" fill-opacity="1.0" stroke="rgb(0,0,0)" stroke-width="2.3839392368560475" fill="rgb(0,128,0)" stroke-linecap="butt" stroke-miterlimit="10.0">
    <path d="M 508.5194,99.1686 c 0.0000,-20.2093 -16.3829,-36.5922 -36.5922 -36.5922c -20.2093,-0.0000 -36.5922,16.3829 -36.5922 36.5922c -0.0000,20.2093 16.3829,36.5922 36.5922 36.5922c 20.2093,0.0000 36.5922,-16.3829 36.5922 -36.5922Z"/>
  </g>
  <g stroke-linejoin="miter" stroke-opacity="1.0" fill-opacity="1.0" stroke="rgb(0,0,0)" stroke-width="2.3839392368560475" fill="rgb(0,128,0)" stroke-linecap="butt" stroke-miterlimit="10.0">
    <path d="M 600.0000,257.6176 c 0.0000,-20.2093 -16.3829,-36.5922 -36.5922 -36.5922c -20.2093,-0.0000 -36.5922,16.3829 -36.5922 36.5922c -0.0000,20.2093 16.3829,36.5922 36.5922 36.5922c 20.2093,0.0000 36.5922,-16.3829 36.5922 -36.5922Z"/>
  </g>
  <g stroke-linejoin="miter" stroke-opacity="1.0" fill-opacity="1.0" stroke="rgb(0,0,0)" stroke-width="2.3839392368560475" fill="rgb(0,128,0)" stroke-linecap="butt" stroke-miterlimit="10.0">
    <path d="M 568.2291,437.7991 c 0.0000,-20.2093 -16.3829,-36.5922 -36.5922 -36.5922c -20.2093,-0.0000 -36.5922,16.3829 -36.5922 36.5922c -0.0000,20.2093 16.3829,36.5922 36.5922 36.5922c 20.2093,0.0000 36.5922,-16.3829 36.5922 -36.5922Z"/>
  </g>
</svg>