<?xml version="1.0" encoding="UTF-8"?>
<!DOCTYPE svg PUBLIC "-//W3C//DTD SVG 1.1//EN"
    "http://www.w3.org/Graphics/SVG/1.1/DTD/svg11.dtd">
<svg xmlns="http://www.w3.org/2000/svg" height="600.0000" stroke-opacity="1" viewBox="0 0 600 600" font-size="1" width="600.0000" xmlns:xlink="http://www.w3.org/1999/xlink" stroke="rgb(0,0,0)" version="1.1">
  <defs>
  </defs>
  <g stroke-linejoin="miter" stroke-opacity="1.0" fill-opacity="1.0" stroke="rgb(0,0,0)" stroke-width="2.4" fill="rgb(255,0,0)" stroke-linecap="butt" stroke-miterlimit="10.0">
    <path d="M 337.1698,562.8302 c 0.0000,-20.5283 -16.6415,-37.1698 -37.1698 -37.1698c -20.5283,-0.0000 -37.1698,16.6415 -37.1698 37.1698c -0.0000,20.5283 16.6415,37.1698 37.1698 37.1698c 20.5283,0.0000 37.1698,-16.6415 37.1698 -37.1698Z"/>
  </g>
  <g stroke-linejoin="miter" stroke-opacity="1.0" fill-opacity="1.0" stroke="rgb(0,0,0)" stroke-width="2.4" fill="rgb(255,0,0)" stroke-linecap="butt" stroke-miterlimit="10.0">
    <path d="M 74.3396,300.0000 c 0.0000,-20.5283 -16.6415,-37.1698 -37.1698 -37.1698c -20.5283,-0.0000 -37.1698,16.6415 -37.1698 37.1698c -0.0000,20.5283 16.6415,37.1698 37.1698 37.1698c 20.5283,0.0000 37.1698,-16.6415 37.1698 -37.1698Z"/>
  </g>
  <g stroke-linejoin="miter" stroke-opacity="1.0" fill-opacity="1.0" stroke="rgb(0,0,0)" stroke-width="2.4" fill="rgb(255,0,0)" stroke-linecap="butt" stroke-miterlimit="10.0">
    <path d="M 337.1698,37.1698 c 0.0000,-20.5283 -16.6415,-37.1698 -37.1698 -37.1698c -20.5283,-0.0000 -37.1698,16.6415 -37.1698 37.1698c -0.0000,20.5283 16.6415,37.1698 37.1698 37.1698c 20.5283,0.0000 37.1698,-16.6415 37.1698 -37.1698Z"/>
  </g>
  <g stroke-linejoin="miter" stroke-opacity="1.0" fill-opacity="1.0" stroke="rgb(0,0,0)" stroke-width="2.4" fill="rgb(255,0,0)" stroke-linecap="butt" stroke-miterlimit="10.0">
    <path d="M 600.0000,300.0000 c 0.0000,-20.5283 -16.6415,-37.1698 -37.1698 -37.1698c -20.5283,-0.0000 -37.1698,16.6415 -37.1698 37.1698c -0.0000,20.5283 16.6415,37.1698 37.1698 37.1698c 20.5283,0.0000 37.1698,-16.6415 37.1698 -37.1698Z"/>
  </g>
  <g stroke-linejoin="miter" stroke-opacity="1.0" fill-opacity="1.0" stroke="rgb(0,0,0)" stroke-width="2.4" fill="rgb(0,0,255)" stroke-linecap="butt" stroke-miterlimit="10.0">
    <path d="M 207.0755,392.9245 c 0.0000,-20.5283 -16.6415,-37.1698 -37.1698 -37.1698c -20.5283,-0.0000 -37.1698,16.6415 -37.1698 37.1698c -0.0000,20.5283 16.6415,37.1698 37.1698 37.1698c 20.5283,0.0000 37.1698,-16.6415 37.1698 -37.1698Z"/>
  </g>
  <g stroke-linejoin="miter" stroke-opacity="1.0" fill-opacity="1.0" stroke="rgb(0,0,0)" stroke-width="2.4" fill="rgb(0,0,255)" stroke-linecap="butt" stroke-miterlimit="10.0">
    <path d="M 207.0755,207.0755 c 0.0000,-20.5283 -16.6415,-37.1698 -37.1698 -37.1698c -20.5283,-0.0000 -37.1698,16.6415 -37.1698 37.1698c -0.0000,20.5283 16.6415,37.1698 37.1698 37.1698c 20.5283,0.0000 37.1698,-16.6415 37.1698 -37.1698Z"/>
  </g>
  <g stroke-linejoin="miter" stroke-opacity="1.0" fill-opacity="1.0" stroke="rgb(0,0,0)" stroke-width="2.4" fill="rgb(0,0,255)" stroke-linecap="butt" stroke-miterlimit="10.0">
    <path d="M 392.9245,207.0755 c 0.0000,-20.5283 -16.6415,-37.1698 -37.1698 -37.1698c -20.5283,-0.0000 -37.1698,16.6415 -37.1698 37.1698c -0.0000,20.5283 16.6415,37.1698 37.1698 37.1698c 20.5283,0.0000 37.1698,-16.6415 37.1698 -37.1698Z"/>
  </g>
  <g stroke-linejoin="miter" stroke-opacity="1.0" fill-opacity="1.0" stroke="rgb(0,0,0)" stroke-width="2.4" fill="rgb(0,0,255)" stroke-linecap="butt" stroke-miterlimit="10.0">
    <path d="M 392.9245,392.9245 c 0.0000,-20.5283 -16.6415,-37.1698 -37.1698 -37.1698c -20.5283,-0.0000 -37.1698,16.6415 -37.1698 37.1698c -0.0000,20.5283 16.6415,37.1698 37.1698 37.1698c 20.5283,0.0000 37.1698,-16.6415 37.1698 -37.1698Z"/>
  </g>
</svg>