<?xml version="1.0" encoding="UTF-8"?>
<!DOCTYPE svg PUBLIC "-//W3C//DTD SVG 1.1//EN"
    "http://www.w3.org/Graphics/SVG/1.1/DTD/svg11.dtd">
<svg xmlns="http://www.w3.org/2000/svg" height="144.8999" stroke-opacity="1" viewBox="0 0 300 145" font-size="1" width="300.0000" xmlns:xlink="http://www.w3.org/1999/xlink" stroke="rgb(0,0,0)" version="1.1">
  <defs>
  </defs>
  <g stroke-linejoin="miter" stroke-opacity="1.0" fill-opacity="0.0" stroke="rgb(0,0,0)" stroke-width="0.8339781299993356" fill="rgb(0,0,0)" stroke-linecap="butt" stroke-miterlimit="10.0">
    <path d="M 300.0000,114.3535 l -0.0000,-30.7832 h -30.7832 l -0.0000,30.7832 Z"/>
  </g>
  <g stroke-linejoin="miter" stroke-opacity="1.0" fill-opacity="0.0" stroke="rgb(0,0,0)" stroke-width="0.8339781299993356" fill="rgb(0,0,0)" stroke-linecap="butt" stroke-miterlimit="10.0">
    <path d="M 268.0328,83.3335 c 0.0000,-34.0022 -27.5642,-61.5664 -61.5664 -61.5664c -34.0022,-0.0000 -61.5664,27.5642 -61.5664 61.5664c -0.0000,34.0022 27.5642,61.5664 61.5664 61.5664c 34.0022,0.0000 61.5664,-27.5642 61.5664 -61.5664Z"/>
  </g>
  <g stroke-linejoin="miter" stroke-opacity="1.0" fill-opacity="0.0" stroke="rgb(0,0,0)" stroke-width="0.8339781299993356" fill="rgb(0,0,0)" stroke-linecap="butt" stroke-miterlimit="10.0">
    <path d="M 114.1167,61.5664 l -0.0000,-61.5664 h -61.5664 l -0.0000,61.5664 Z"/>
  </g>
  <g stroke-linejoin="miter" stroke-opacity="1.0" fill-opacity="0.0" stroke="rgb(0,0,0)" stroke-width="0.8339781299993356" fill="rgb(0,0,0)" stroke-linecap="butt" stroke-miterlimit="10.0">
    <path d="M 61.5664,83.3335 c 0.0000,-17.0011 -13.7821,-30.7832 -30.7832 -30.7832c -17.0011,-0.0000 -30.7832,13.7821 -30.7832 30.7832c -0.0000,17.0011 13.7821,30.7832 30.7832 30.7832c 17.0011,0.0000 30.7832,-13.7821 30.7832 -30.7832Z"/>
  </g>
</svg>